<?xml version="1.0" encoding="UTF-8"?>
<svg id="Layer_1" xmlns="http://www.w3.org/2000/svg" xmlns:xlink="http://www.w3.org/1999/xlink" viewBox="0 0 56 56">
  <defs>
    <style>
      .cls-1 {
        fill: none;
      }

      .cls-2 {
        clip-path: url(#clippath);
      }
    </style>
    <clipPath id="clippath">
      <path class="cls-1" d="M28,0C12.54,0,0,12.54,0,28H0C0,43.46,12.54,56,28,56s28-12.54,28-28h0C56,12.54,43.46,0,28,0ZM32.24,32.24c-1.08,1.09-2.58,1.76-4.24,1.76-3.31,0-6-2.69-6-6,0-1.66.67-3.16,1.76-4.24,1.08-1.09,2.58-1.76,4.24-1.76s3.16.67,4.24,1.76c1.09,1.08,1.76,2.58,1.76,4.24s-.67,3.16-1.76,4.24Z"/>
    </clipPath>
  </defs>
  <g class="cls-2">
    <image width="64" height="64" transform="scale(.88)" xlink:href="chrome-extension://ckjjlfdjlejedkcfdfjeogdkkonmoilo/sobol.png"/>
  </g>
</svg>