<svg xmlns="http://www.w3.org/2000/svg" viewBox="0 0 24 24" id="back">
  <g>
    <path fill="none" d="M22,12a10.34725,10.34725,0,0,1-.08008,1.25,10,10,0,1,1,0-2.5A10.34725,10.34725,0,0,1,22,12Z"></path>
    <path fill="#004fac" d="M13,16.5a.9941.9941,0,0,1-.6582-.24707l-4-3.5a1.00019,1.00019,0,0,1,0-1.50586l4-3.5a1.00007,1.00007,0,1,1,1.3164,1.50586L10.51855,12l3.13965,2.74707A1,1,0,0,1,13,16.5Z"></path>
    <path fill="#004fac" d="M21,13H10a1,1,0,0,1,0-2H21a1,1,0,0,1,0,2Z"></path>
    <path fill="#004fac" d="M12,22A10,10,0,1,1,22,12,10.01177,10.01177,0,0,1,12,22ZM12,4a8,8,0,1,0,8,8A8.00917,8.00917,0,0,0,12,4Z"></path>
  </g>
</svg>